<svg xmlns="http://www.w3.org/2000/svg" viewBox="0 0 960 540" role="img" aria-labelledby="title desc">
  <title id="title">Project placeholder visual</title>
  <desc id="desc">A restrained placeholder card for future project images.</desc>
  <defs>
    <linearGradient id="bg" x1="0" x2="1" y1="0" y2="1">
      <stop offset="0" stop-color="#0d1b2e"/>
      <stop offset="1" stop-color="#101b2d"/>
    </linearGradient>
  </defs>
  <rect width="960" height="540" fill="url(#bg)"/>
  <g opacity=".2" stroke="#9fcdff">
    <path d="M0 90h960M0 180h960M0 270h960M0 360h960M0 450h960"/>
    <path d="M120 0v540M240 0v540M360 0v540M480 0v540M600 0v540M720 0v540M840 0v540"/>
  </g>
  <rect x="260" y="150" width="440" height="240" rx="24" fill="none" stroke="#35d6ff" stroke-opacity=".42" stroke-width="3" stroke-dasharray="14 12"/>
  <path d="M390 305l70-84 58 58 42-48 84 74" fill="none" stroke="#35d6ff" stroke-width="14" stroke-linecap="round" stroke-linejoin="round" opacity=".55"/>
  <circle cx="390" cy="222" r="24" fill="#7c5cff" opacity=".55"/>
  <text x="480" y="432" fill="#a9bad0" text-anchor="middle" font-family="Arial, sans-serif" font-size="24" font-weight="700">COMING SOON</text>
</svg>
